{
    "asset" : {
        "generator" : "Khronos glTF Blender I/O v3.4.50",
        "version" : "2.0"
    },
    "scene" : 0,
    "scenes" : [
        {
            "name" : "Scene",
            "nodes" : [
                0
            ]
        }
    ],
    "nodes" : [
        {
            "mesh" : 0,
            "name" : "beech_forest_stones_01_1_LOD1",
            "rotation" : [
                0.70710688829422,
                0,
                0,
                0.7071066498756409
            ],
            "scale" : [
                0.009999999776482582,
                0.009999999776482582,
                0.009999999776482582
            ]
        }
    ],
    "meshes" : [
        {
            "name" : "10.045",
            "primitives" : [
                {
                    "attributes" : {
                        "POSITION" : 0,
                        "TEXCOORD_0" : 1,
                        "NORMAL" : 2
                    },
                    "indices" : 3
                }
            ]
        }
    ],
    "accessors" : [
        {
            "bufferView" : 0,
            "componentType" : 5126,
            "count" : 407,
            "max" : [
                54.324913024902344,
                46.89131546020508,
                5.48309850692749
            ],
            "min" : [
                -47.96754455566406,
                -46.31057357788086,
                -66.17816925048828
            ],
            "type" : "VEC3"
        },
        {
            "bufferView" : 1,
            "componentType" : 5126,
            "count" : 407,
            "type" : "VEC2"
        },
        {
            "bufferView" : 2,
            "componentType" : 5126,
            "count" : 407,
            "type" : "VEC3"
        },
        {
            "bufferView" : 3,
            "componentType" : 5123,
            "count" : 1497,
            "type" : "SCALAR"
        }
    ],
    "bufferViews" : [
        {
            "buffer" : 0,
            "byteLength" : 4884,
            "byteOffset" : 0,
            "target" : 34962
        },
        {
            "buffer" : 0,
            "byteLength" : 3256,
            "byteOffset" : 4884,
            "target" : 34962
        },
        {
            "buffer" : 0,
            "byteLength" : 4884,
            "byteOffset" : 8140,
            "target" : 34962
        },
        {
            "buffer" : 0,
            "byteLength" : 2994,
            "byteOffset" : 13024,
            "target" : 34963
        }
    ],
    "buffers" : [
        {
            "byteLength" : 16020,
            "uri" : "rock.bin"
        }
    ]
}
